<svg width="93" height="42" viewBox="0 0 93 42" fill="none" xmlns="http://www.w3.org/2000/svg">
<g id="Group">
<path id="Vector" d="M5.52322 2.75609V33.7423H0V2.75609L2.76427 0L5.52322 2.75609Z" fill="black"/>
<path id="Vector_2" d="M17.7894 8.26294V39.2491L15.0144 42.0052L12.2608 39.2491V8.26294H17.7894Z" fill="black"/>
<path id="Vector_3" d="M24.6068 14.7605H30.1301V36.493H24.6068V19.4084V14.7605Z" fill="black"/>
<path id="Vector_4" d="M44.1805 14.2019C45.5439 14.2019 46.8062 14.4022 47.962 14.8027C49.1231 15.2032 50.0179 15.6616 50.6571 16.1781V20.9999C49.9593 20.5414 49.1125 20.0988 48.1112 19.6666C47.1098 19.2345 46.0712 19.0237 45.0007 19.0237C43.9568 19.0237 43.1312 19.2556 42.524 19.7141C41.9168 20.1725 41.6132 20.7206 41.6132 21.3477C41.6132 21.8062 41.789 22.2277 42.1352 22.6177C42.4814 23.0024 43.1472 23.3449 44.1378 23.6295L46.6145 24.4463C49.9487 25.4212 51.6158 27.3289 51.6158 30.1693C51.6158 31.5183 51.2323 32.7146 50.4653 33.7633C49.6984 34.8119 48.6651 35.634 47.3761 36.24C46.0872 36.8408 44.6598 37.1412 43.0939 37.1412C41.6132 37.1412 40.1805 36.9093 38.7904 36.4508C37.4003 35.9924 36.3404 35.4917 35.616 34.9437V30.1693C36.1646 30.5434 36.8357 30.9018 37.6186 31.2443C38.4016 31.5868 39.2111 31.8661 40.0527 32.0822C40.8942 32.2983 41.6612 32.4037 42.3589 32.4037C43.4614 32.4037 44.3083 32.2087 44.9048 31.824C45.5013 31.4393 45.7943 30.886 45.7943 30.1693C45.7943 29.6265 45.5493 29.1944 45.0539 28.8782C44.5586 28.562 43.8343 28.2458 42.8809 27.9296L40.1858 26.9811C38.5028 26.4383 37.3417 25.6636 36.7079 24.6571C36.0687 23.6559 35.7492 22.4649 35.7492 21.0842C35.7492 19.7035 36.106 18.5073 36.8144 17.4902C37.5228 16.4732 38.5187 15.6669 39.7917 15.082C41.0647 14.497 42.5293 14.2019 44.1805 14.2019Z" fill="black"/>
<path id="Vector_5" d="M67.8605 14.7605H61.7674V8.43677H56.2442V14.7605V19.3241V36.493H61.7674V19.3241H67.8605V14.7605Z" fill="black"/>
<path id="Vector_6" d="M24.6761 4.54254C23.9357 5.27504 23.5682 6.14455 23.5682 7.1458C23.5682 8.12071 23.9357 8.97968 24.6761 9.72799C25.4164 10.4763 26.3059 10.8452 27.3498 10.8452V3.44116C26.3059 3.44116 25.4111 3.81005 24.6761 4.54254Z" fill="#4849A6"/>
<path id="Vector_7" d="M31.174 7.14591C31.174 6.14465 30.7958 5.27514 30.0448 4.54264C29.2885 3.81015 28.3937 3.44653 27.3498 3.44653V10.8505C28.3937 10.8505 29.2939 10.4764 30.0448 9.73336C30.8012 8.97978 31.174 8.12081 31.174 7.14591Z" fill="#48EBCC"/>
<path id="Vector_8" d="M87.4768 14.8766V16.4786C85.6659 15.2666 83.4875 14.5552 81.1333 14.5552C74.8857 14.5552 69.8259 19.5667 69.8259 25.7429C69.8259 31.9243 74.8911 36.9306 81.1333 36.9306C83.4822 36.9306 85.6659 36.2192 87.4768 35.0071V36.6091H93V14.8766H87.4768ZM81.4103 32.1825C77.8151 32.1825 74.907 29.3 74.907 25.7481C74.907 22.1911 77.8205 19.3138 81.4103 19.3138C85.0054 19.3138 87.9135 22.1963 87.9135 25.7481C87.9135 29.3 85.0001 32.1825 81.4103 32.1825Z" fill="black"/>
</g>
</svg>
