<svg width="77" height="20" viewBox="0 0 77 20" fill="none" xmlns="http://www.w3.org/2000/svg">
<g clip-path="url(#clip0_323_4935)">
<path d="M19.4681 5.24936C15.0247 4.39139 10.4639 4.39139 6.0205 5.24936C6.0205 0.128702 0 0 0 0V13.1716C0 16.9434 5.7063 20 12.7443 20C19.7823 20 25.4886 16.9434 25.4886 13.1716V8.88751V0C25.4886 0 19.4681 0.128702 19.4681 5.24936Z" fill="#A46AFF"/>
<path d="M5.55406 13.3054C6.91824 13.3054 8.02413 12.1729 8.02413 10.776C8.02413 9.37903 6.91824 8.24658 5.55406 8.24658C4.18987 8.24658 3.08398 9.37903 3.08398 10.776C3.08398 12.1729 4.18987 13.3054 5.55406 13.3054Z" fill="white"/>
<path d="M22.2257 11.7424C22.7477 10.4518 22.1492 8.97215 20.8889 8.43757C19.6285 7.90298 18.1836 8.51585 17.6616 9.80646C17.1395 11.0971 17.738 12.5767 18.9984 13.1113C20.2587 13.6459 21.7036 13.033 22.2257 11.7424Z" fill="white"/>
<path d="M21.1065 11.6956C21.6068 11.0394 21.4929 10.0923 20.8521 9.58002C20.2114 9.06775 19.2864 9.18438 18.7862 9.84052C18.2859 10.4967 18.3998 11.4438 19.0406 11.9561C19.6813 12.4684 20.6063 12.3517 21.1065 11.6956Z" fill="#A46AFF"/>
<path d="M6.59599 11.8407C7.17079 11.2521 7.1708 10.2977 6.59599 9.70913C6.02118 9.12051 5.08923 9.12051 4.51442 9.70912C3.93961 10.2977 3.93961 11.2521 4.51442 11.8407C5.08923 12.4293 6.02118 12.4293 6.59599 11.8407Z" fill="#A46AFF"/>
<path d="M30.917 12.3426C30.8994 12.346 30.8814 12.346 30.8638 12.3426C30.8276 12.3254 30.7984 12.2956 30.7816 12.2585C30.7742 12.2413 30.7701 12.2228 30.7695 12.204V2.65815H32.5653C32.5917 2.65669 32.6178 2.6636 32.6402 2.67796C32.6626 2.69142 32.6817 2.71006 32.6958 2.7324C32.7081 2.75603 32.7147 2.78233 32.7151 2.80912V10.6547H35.0668C35.2708 10.6502 35.4742 10.6803 35.6686 10.7438C35.83 10.8027 35.9722 10.9064 36.0795 11.0433C36.1976 11.2003 36.2869 11.3781 36.3429 11.5679C36.4201 11.8219 36.4815 12.0806 36.5266 12.3426H30.917ZM34.8082 9.59046H36.3767C36.403 9.58974 36.429 9.5966 36.4517 9.61027C36.4734 9.62382 36.4916 9.64248 36.5048 9.66471C36.5189 9.68772 36.5264 9.71428 36.5266 9.74143V12.3426C36.1674 12.3269 35.8142 12.243 35.4849 12.0951C35.263 11.9869 35.0821 11.8068 34.9701 11.5828C34.8659 11.3501 34.8147 11.0962 34.8203 10.8403V9.58303L34.8082 9.59046Z" fill="black"/>
<path d="M39.5624 10.2389C39.5561 10.3186 39.5667 10.3988 39.5933 10.4739C39.62 10.5491 39.6622 10.6175 39.7171 10.6744C39.8543 10.7841 40.0271 10.8363 40.2004 10.8205C40.4444 10.8214 40.6876 10.794 40.9255 10.7388C41.1686 10.6788 41.4027 10.5856 41.6216 10.4616C41.8691 10.3208 42.1023 10.155 42.3176 9.96662V11.1546H41.9116C41.8016 11.4246 41.6368 11.6675 41.4282 11.8674C41.2144 12.0682 40.9638 12.2238 40.6911 12.3252C40.3967 12.434 40.0856 12.4877 39.7726 12.4836C39.4003 12.4952 39.0311 12.4101 38.6995 12.2361C38.4057 12.0784 38.1636 11.8357 38.0035 11.5382C37.8369 11.217 37.7537 10.8574 37.7618 10.4938V9.99879C37.7568 9.71917 37.807 9.44139 37.9092 9.18205C38.0069 8.94611 38.1528 8.73431 38.337 8.56085C38.5298 8.37951 38.7568 8.24053 39.0041 8.15248C39.2868 8.05199 39.5845 8.00258 39.8838 8.00645H42.4506C42.5327 8.00645 42.5932 8.08071 42.6342 8.2292C42.6765 8.39089 42.7008 8.55693 42.7068 8.72419C42.7068 8.90486 42.7213 9.05336 42.7213 9.17463H40.198C40.1037 9.1716 40.0095 9.18584 39.9201 9.2167C39.8464 9.24198 39.7794 9.28433 39.7243 9.34045C39.6774 9.39649 39.6383 9.45896 39.6083 9.52607C39.5767 9.59841 39.561 9.67699 39.5624 9.75624V10.2389ZM43.8862 7.62532V10.2958C43.8856 10.3607 43.8921 10.4254 43.9055 10.4888C43.9181 10.541 43.944 10.5888 43.9805 10.6274C44.0134 10.6577 44.0533 10.679 44.0965 10.6893C44.1508 10.7041 44.207 10.7107 44.2632 10.7091H44.6693V12.1941C44.6703 12.2142 44.6672 12.2343 44.6602 12.2531C44.6531 12.2719 44.6423 12.289 44.6284 12.3032C44.6145 12.3174 44.5978 12.3285 44.5795 12.3357C44.5611 12.3429 44.5415 12.3461 44.5218 12.345H43.7243C43.493 12.3487 43.2632 12.3067 43.0475 12.2213C42.8515 12.1388 42.6726 12.0187 42.5206 11.8674C42.366 11.7136 42.2464 11.5269 42.1702 11.3204C42.0848 11.0914 42.043 10.8478 42.0469 10.6027V7.52879C42.0579 7.31008 42.0121 7.0923 41.914 6.89769C41.8115 6.73769 41.6548 6.6222 41.4741 6.57347C41.2078 6.50112 40.9326 6.4686 40.6572 6.47694C40.415 6.47662 40.173 6.48985 39.9322 6.51655C39.6921 6.54625 39.4576 6.58338 39.2288 6.62792C38.993 6.67668 38.7604 6.74116 38.5328 6.82096H38.2766V5.336C38.2748 5.30797 38.2798 5.27991 38.2911 5.25432C38.2967 5.23841 38.3058 5.22402 38.3177 5.21225C38.4539 5.11699 38.6077 5.0513 38.7696 5.01921C39.0601 4.93644 39.3556 4.8736 39.6542 4.83111C39.9904 4.78132 40.3296 4.75568 40.6693 4.75439C41.1573 4.74664 41.6444 4.80066 42.1194 4.91525C42.4858 4.99894 42.8283 5.16836 43.12 5.41024C43.3869 5.64998 43.5878 5.95719 43.7025 6.30123C43.8366 6.72874 43.8987 7.17648 43.8862 7.62532Z" fill="black"/>
<path d="M49.8169 2.65805H55.6175C55.6462 2.65533 55.6751 2.66228 55.6996 2.67785C55.7173 2.69096 55.7327 2.70683 55.7456 2.72487C55.7616 2.74973 55.7692 2.77928 55.7673 2.80901V4.34596H49.9667C49.9402 4.34623 49.9141 4.33847 49.8918 4.32368C49.8696 4.31083 49.8512 4.29201 49.8387 4.26924C49.8242 4.2464 49.8166 4.21972 49.8169 4.19251V2.65805ZM52.4127 12.3425H50.6145C50.5883 12.3421 50.5626 12.3353 50.5396 12.3227C50.5191 12.3095 50.5011 12.2928 50.4864 12.2732C50.4708 12.2491 50.464 12.2202 50.467 12.1915V3.6802H52.5601L52.4127 4.05392V12.3425ZM51.5595 7.00157H55.1848C55.2251 7.00057 55.2641 7.01568 55.2936 7.04365C55.307 7.0586 55.3174 7.07616 55.324 7.0953C55.3307 7.11443 55.3335 7.13474 55.3323 7.15501V8.70433H51.5619L51.5595 7.00157Z" fill="black"/>
<path d="M60.0453 4.73213C60.6032 4.71789 61.1552 4.85175 61.6477 5.1207C62.0949 5.36903 62.4631 5.74354 62.7087 6.19977C62.9689 6.69686 63.0988 7.25455 63.0857 7.81839V8.96675C63.0866 8.99289 63.0825 9.01895 63.0737 9.04348C63.0697 9.0546 63.0633 9.06464 63.0549 9.0728C63.0465 9.08095 63.0364 9.08702 63.0253 9.0905C63.0024 9.10064 62.9777 9.1057 62.9528 9.10535H58.3607L58.3196 7.94214H61.3141V7.74909C61.319 7.51771 61.2913 7.28682 61.232 7.06352C61.1896 6.89244 61.1007 6.73714 60.9758 6.61556C60.8751 6.49871 60.7445 6.41299 60.5987 6.36806C60.4173 6.32005 60.2303 6.29758 60.0429 6.30125C59.8616 6.28598 59.6793 6.30811 59.5066 6.36636C59.3339 6.4246 59.1743 6.51776 59.0374 6.64032C58.8175 6.86554 58.7063 7.23183 58.7063 7.73919V9.4271C58.7029 9.62705 58.7323 9.82615 58.7933 10.0161C58.8448 10.1763 58.927 10.3244 59.035 10.4517C59.1946 10.6083 59.3925 10.7177 59.6078 10.7685C59.8795 10.8389 60.159 10.8722 60.4392 10.8675C60.7284 10.8692 61.0173 10.8527 61.3045 10.818C61.5417 10.7882 61.7767 10.7419 62.0078 10.6794C62.2229 10.62 62.4356 10.5532 62.6434 10.479H62.8996V11.8897C62.8994 11.9096 62.8945 11.9291 62.8851 11.9466C62.8746 11.967 62.8607 11.9854 62.844 12.001C62.7012 12.1109 62.536 12.1862 62.3607 12.2213C62.0675 12.305 61.7697 12.3703 61.4688 12.4168C61.1177 12.4715 60.763 12.4988 60.4078 12.4985C59.8847 12.507 59.3633 12.4352 58.861 12.2857C58.4525 12.1638 58.0742 11.9536 57.7516 11.6694C57.4598 11.4015 57.233 11.0677 57.0894 10.6943C56.9363 10.281 56.8609 9.84183 56.8671 9.39987V7.82333C56.861 7.38783 56.9365 6.95517 57.0894 6.54875C57.2322 6.17986 57.4516 5.84715 57.7323 5.57362C58.0199 5.29563 58.3606 5.08159 58.7329 4.94497C59.1541 4.79282 59.5988 4.72069 60.0453 4.73213Z" fill="black"/>
<path d="M66.6558 12.3425H64.8576C64.8351 12.3454 64.8124 12.3454 64.7899 12.3425C64.7719 12.3395 64.7556 12.3298 64.744 12.3153C64.7307 12.3027 64.7214 12.2863 64.7174 12.2683C64.7146 12.2453 64.7146 12.222 64.7174 12.199V4.89789H66.5132C66.5422 4.89552 66.5712 4.90339 66.5954 4.92017C66.6132 4.93388 66.6294 4.94966 66.6437 4.9672C66.6577 4.99282 66.6645 5.02198 66.663 5.05134V12.3425H66.6558ZM66.3899 6.22693H66.9289C67.016 5.93109 67.1438 5.64945 67.3083 5.39042C67.4402 5.18402 67.625 5.01875 67.8425 4.91274C68.0701 4.8074 68.3178 4.755 68.5675 4.7593C68.6881 4.75689 68.8084 4.77105 68.9252 4.80138C68.9949 4.81712 69.0612 4.84562 69.121 4.88552C69.1493 4.90408 69.1725 4.92961 69.1887 4.95977C69.1997 4.99322 69.2046 5.02846 69.2032 5.06372V6.78133H68.9518C68.8547 6.75026 68.7553 6.72708 68.6545 6.71203C68.534 6.6911 68.4119 6.68117 68.2896 6.68233C68.0383 6.67869 67.7897 6.73638 67.5645 6.85063C67.343 6.96726 67.144 7.12407 66.9772 7.31344C66.7763 7.53596 66.5868 7.76891 66.4092 8.01137L66.3899 6.22693Z" fill="black"/>
<path d="M71.893 10.2388C71.8868 10.3185 71.8973 10.3987 71.924 10.4739C71.9507 10.549 71.9929 10.6174 72.0477 10.6744C72.1849 10.7841 72.3577 10.8363 72.5311 10.8204C72.775 10.8213 73.0183 10.7939 73.2562 10.7388C73.4993 10.6788 73.7334 10.5856 73.9523 10.4616C74.1998 10.3208 74.433 10.155 74.6483 9.96658V11.1546H74.2423C74.1332 11.425 73.9683 11.6682 73.7589 11.8673C73.549 12.0674 73.3026 12.223 73.0338 12.3252C72.7394 12.434 72.4283 12.4877 72.1154 12.4836C71.7431 12.4949 71.374 12.4097 71.0423 12.2361C70.7485 12.0784 70.5064 11.8357 70.3462 11.5382C70.1797 11.217 70.0964 10.8573 70.1045 10.4937V9.99876C70.1004 9.71897 70.1513 9.44118 70.2544 9.18202C70.3512 8.94619 70.4962 8.73437 70.6798 8.56082C70.8731 8.37896 71.101 8.23993 71.3492 8.15245C71.6312 8.05195 71.9281 8.00253 72.2266 8.00642H74.7933C74.8755 8.00642 74.9359 8.08067 74.977 8.22917C75.0202 8.39072 75.0454 8.55679 75.0519 8.72416C75.0519 8.90483 75.064 9.05333 75.064 9.1746H72.5287C72.4343 9.17156 72.3402 9.18581 72.2508 9.21667C72.1771 9.24195 72.1101 9.2843 72.055 9.34042C72.0088 9.39654 71.9706 9.45903 71.9414 9.52604C71.9074 9.59766 71.8908 9.67662 71.893 9.7562V10.2388ZM76.2169 7.62528V10.2957C76.2158 10.3608 76.2232 10.4257 76.2386 10.4888C76.2494 10.5411 76.2745 10.5892 76.3111 10.6274C76.3441 10.6577 76.384 10.679 76.4272 10.6893C76.4824 10.704 76.5393 10.7107 76.5963 10.7091H77V12.194C77.001 12.2139 76.9981 12.2338 76.9914 12.2525C76.9848 12.2712 76.9745 12.2884 76.9613 12.3029C76.9471 12.3174 76.93 12.3286 76.9113 12.3358C76.8925 12.3431 76.8725 12.3462 76.8525 12.345H76.0574C75.8261 12.3485 75.5964 12.3065 75.3806 12.2213C75.1846 12.1388 75.0057 12.0187 74.8537 11.8673C74.6999 11.7129 74.5804 11.5264 74.5033 11.3204C74.42 11.0908 74.3791 10.8475 74.3825 10.6026V7.52876C74.3927 7.30982 74.346 7.09203 74.2471 6.89765C74.1451 6.73716 73.9882 6.62151 73.8072 6.57343C73.5409 6.50108 73.2657 6.46857 72.9903 6.47691C72.7441 6.47613 72.498 6.48936 72.2532 6.51651C72.0131 6.54621 71.7787 6.58334 71.5499 6.62789C71.3147 6.67635 71.083 6.74083 70.8562 6.82093H70.5952V5.33596C70.5934 5.30793 70.5984 5.27987 70.6097 5.25428C70.6162 5.23886 70.6252 5.22465 70.6363 5.21222C70.7725 5.11696 70.9263 5.05127 71.0882 5.01918C71.3794 4.93618 71.6758 4.87333 71.9752 4.83108C72.3106 4.7812 72.649 4.75556 72.9879 4.75436C73.4759 4.7468 73.9629 4.80083 74.438 4.91522C74.8035 4.99944 75.1451 5.16882 75.4362 5.41021C75.7039 5.64924 75.9049 5.95669 76.0187 6.3012C76.1577 6.72783 76.2247 7.1756 76.2169 7.62528Z" fill="black"/>
<path d="M30.7694 16.1342H32.1664C32.1751 16.1317 32.1843 16.1317 32.193 16.1342C32.2012 16.1388 32.2079 16.1456 32.2123 16.154C32.2145 16.163 32.2145 16.1723 32.2123 16.1812V16.3594H30.8154H30.7888C30.7805 16.3539 30.7738 16.3462 30.7694 16.3372C30.767 16.3283 30.767 16.3188 30.7694 16.3099V16.1317V16.1342ZM31.5429 18.6859C31.5432 18.6931 31.5421 18.7004 31.5395 18.7071C31.537 18.7139 31.5331 18.72 31.528 18.7252C31.523 18.7303 31.517 18.7343 31.5104 18.7369C31.5038 18.7395 31.4968 18.7407 31.4897 18.7403H31.3012V15.9016C31.2992 15.7637 31.3163 15.6262 31.3519 15.4932C31.381 15.3868 31.4321 15.288 31.5018 15.2036C31.5674 15.1272 31.6504 15.0686 31.7435 15.0329C31.8464 14.9941 31.9553 14.9748 32.0649 14.9759C32.1242 14.975 32.1833 14.9808 32.2413 14.9933C32.287 15.0021 32.3316 15.0163 32.3743 15.0353C32.4005 15.0463 32.425 15.0613 32.4468 15.0799C32.4502 15.0805 32.4533 15.0823 32.4555 15.085C32.4577 15.0877 32.4589 15.0912 32.4589 15.0947C32.4602 15.1029 32.4602 15.1113 32.4589 15.1195V15.3026H32.4009C32.369 15.2821 32.3349 15.2655 32.2993 15.2531C32.264 15.2395 32.2276 15.2288 32.1906 15.221C32.1496 15.2168 32.1083 15.2168 32.0673 15.221C32.0069 15.2205 31.9466 15.2288 31.8885 15.2457C31.831 15.2618 31.7769 15.2887 31.729 15.3249C31.6673 15.3798 31.6214 15.4508 31.596 15.5303C31.554 15.6671 31.5352 15.8102 31.5404 15.9535V18.6859H31.5429Z" fill="#A46AFF"/>
<path d="M33.4887 18.0868C33.4842 18.151 33.4937 18.2155 33.5167 18.2755C33.5397 18.3355 33.5756 18.3894 33.6217 18.4333C33.7295 18.5222 33.8652 18.5679 34.0035 18.562C34.1274 18.5641 34.2508 18.5449 34.3685 18.505C34.4896 18.4619 34.6006 18.3937 34.6947 18.3046C34.8219 18.1839 34.9339 18.0476 35.0283 17.8987V18.3392H34.8833C34.8249 18.4337 34.7514 18.5174 34.6657 18.5867C34.5798 18.6574 34.4813 18.7103 34.3757 18.7426C34.2549 18.7789 34.1294 18.7964 34.0035 18.7946C33.864 18.7983 33.7253 18.7704 33.5975 18.7129C33.4874 18.6603 33.3961 18.5738 33.3365 18.4654C33.2717 18.3506 33.2398 18.2193 33.2446 18.0868V17.9482C33.2429 17.8468 33.2601 17.746 33.2954 17.6512C33.327 17.567 33.3785 17.4922 33.4452 17.4334C33.5158 17.3714 33.598 17.3251 33.6869 17.2973C33.7901 17.2642 33.8978 17.2483 34.0059 17.2502H34.9872C34.9983 17.2492 35.0094 17.2515 35.0192 17.2567C35.0291 17.262 35.0373 17.2701 35.0428 17.2799C35.0563 17.305 35.0638 17.333 35.0645 17.3616C35.0672 17.402 35.0672 17.4425 35.0645 17.4829H34.0035C33.9218 17.4801 33.8402 17.491 33.7618 17.5151C33.6992 17.5349 33.6421 17.5697 33.5951 17.6165C33.5557 17.6569 33.5259 17.706 33.5081 17.7601C33.4879 17.8223 33.4781 17.8876 33.479 17.9531L33.4887 18.0868ZM35.1805 16.9532V18.2155C35.1792 18.2662 35.184 18.3169 35.195 18.3664C35.2025 18.401 35.2193 18.4327 35.2434 18.458C35.2639 18.4791 35.2899 18.4937 35.3183 18.5001C35.3519 18.5055 35.3862 18.5055 35.4198 18.5001H35.5213V18.6733C35.5221 18.681 35.5212 18.6888 35.5187 18.696C35.5162 18.7033 35.5121 18.7099 35.5068 18.7154C35.496 18.7246 35.4821 18.729 35.4682 18.7278H35.4102C35.3481 18.7286 35.2862 18.7202 35.2265 18.703C35.1709 18.6884 35.1195 18.6604 35.0766 18.6214C35.0312 18.5813 34.9963 18.5303 34.9751 18.4729C34.9489 18.4009 34.9366 18.3244 34.9389 18.2476V16.978C34.9452 16.8448 34.9246 16.7117 34.8784 16.587C34.8592 16.5409 34.8308 16.4995 34.795 16.4654C34.7592 16.4313 34.7168 16.4053 34.6706 16.3889C34.537 16.3461 34.3972 16.3268 34.2573 16.332C34.1652 16.3326 34.0732 16.3383 33.9818 16.3494C33.896 16.3611 33.8111 16.3793 33.728 16.4038C33.6415 16.4276 33.5567 16.4574 33.4742 16.4929H33.4162V16.3023C33.4136 16.2943 33.4136 16.2856 33.4162 16.2776V16.2627C33.4596 16.2337 33.5068 16.2112 33.5564 16.1959C33.653 16.1641 33.7515 16.1385 33.8513 16.1192C33.9805 16.0956 34.1115 16.084 34.2428 16.0845C34.3835 16.0828 34.5239 16.0986 34.6609 16.1316C34.7675 16.1568 34.8663 16.2087 34.9485 16.2825C35.0259 16.3558 35.0826 16.449 35.1129 16.5523C35.1566 16.6813 35.1794 16.8167 35.1805 16.9532ZM33.8513 14.659C33.9189 14.7604 33.9866 14.8644 34.0519 14.9708C34.1171 15.0772 34.1848 15.1812 34.2525 15.2851C34.3201 15.3891 34.3854 15.4906 34.4458 15.5895H34.2621C34.2464 15.5899 34.2307 15.5866 34.2165 15.5797C34.2022 15.5728 34.1897 15.5626 34.18 15.55L33.9552 15.2554L33.7739 15.0079C33.7159 14.9287 33.6482 14.8396 33.5709 14.7406C33.5664 14.7314 33.5641 14.7213 33.5641 14.7109C33.5641 14.7006 33.5664 14.6905 33.5709 14.6812C33.5727 14.6718 33.5779 14.6634 33.5856 14.6579C33.5933 14.6524 33.6027 14.6501 33.612 14.6516H33.8537L33.8513 14.659Z" fill="#A46AFF"/>
<path d="M36.79 18.7402H36.7151C36.7064 18.7428 36.6972 18.7428 36.6885 18.7402C36.6806 18.7365 36.6739 18.7305 36.6691 18.7229C36.6656 18.7134 36.6656 18.7028 36.6691 18.6932V15.0254H36.8577C36.8671 15.0225 36.8772 15.0225 36.8867 15.0254L36.9036 15.0427C36.9064 15.0524 36.9064 15.0627 36.9036 15.0724V18.3269C36.9036 18.3838 36.8843 18.4309 36.8794 18.4705C36.8746 18.5101 36.8649 18.5521 36.8601 18.5917C36.8553 18.6313 36.8432 18.6808 36.8311 18.7328L36.79 18.7402ZM36.8311 18.3442V17.879C36.9302 18.0909 37.0798 18.2739 37.2661 18.4111C37.4098 18.5071 37.5779 18.5579 37.7495 18.5571C37.8758 18.561 38.0006 18.5284 38.1096 18.463C38.2166 18.3978 38.3011 18.3 38.3513 18.1834C38.4119 18.0424 38.4409 17.8893 38.4359 17.7354V17.0919C38.4378 16.976 38.4207 16.8605 38.3851 16.7504C38.3577 16.663 38.3116 16.583 38.2501 16.5162C38.1887 16.4494 38.1134 16.3975 38.0299 16.3643C37.9414 16.3322 37.8482 16.3163 37.7543 16.3173C37.6423 16.3169 37.5313 16.3397 37.4281 16.3841C37.3136 16.4355 37.2108 16.5105 37.1259 16.6044C37.0135 16.7251 36.9176 16.8607 36.8407 17.0078V16.5524H36.9713C37.0365 16.4612 37.1119 16.3781 37.196 16.3049C37.2752 16.2356 37.3661 16.1819 37.4643 16.1465C37.5718 16.1096 37.6845 16.0912 37.7978 16.0921C37.9178 16.0911 38.0368 16.1137 38.1483 16.1589C38.2545 16.2013 38.3502 16.2673 38.4286 16.3519C38.51 16.4401 38.5725 16.5446 38.6123 16.6588C38.6579 16.789 38.68 16.9265 38.6776 17.0647V17.7775C38.6797 17.9222 38.6576 18.0661 38.6123 18.2032C38.5733 18.3227 38.5099 18.4324 38.4262 18.5249C38.3473 18.6137 38.2498 18.6831 38.141 18.7279C38.026 18.7757 37.9027 18.7993 37.7785 18.7972C37.6704 18.7988 37.5627 18.7829 37.4595 18.7501C37.3623 18.72 37.2719 18.6704 37.1936 18.6041C37.1058 18.5342 37.0292 18.4507 36.9664 18.3566L36.8311 18.3442Z" fill="#A46AFF"/>
<path d="M40.1618 18.7404H39.9491C39.9426 18.7387 39.9367 18.7353 39.9321 18.7305C39.9274 18.7257 39.9241 18.7197 39.9225 18.7131C39.921 18.7049 39.921 18.6966 39.9225 18.6884V16.1342H40.111C40.1205 16.1314 40.1305 16.1314 40.14 16.1342L40.1569 16.1516C40.1597 16.1613 40.1597 16.1716 40.1569 16.1813V18.7329L40.1618 18.7404ZM40.0941 16.5971H40.2198C40.2946 16.4845 40.3822 16.3815 40.4808 16.2902C40.5557 16.2213 40.6426 16.1675 40.737 16.1318C40.8258 16.1015 40.9189 16.0864 41.0125 16.0872C41.0648 16.0842 41.1173 16.0842 41.1696 16.0872C41.2098 16.0939 41.2494 16.1038 41.288 16.1169C41.3039 16.122 41.3175 16.1325 41.3267 16.1466C41.3308 16.1645 41.3308 16.1832 41.3267 16.2011V16.3694H41.2687L41.1527 16.3446C41.1028 16.3416 41.0527 16.3416 41.0028 16.3446C40.897 16.344 40.7919 16.3642 40.6935 16.404C40.583 16.4496 40.4833 16.5187 40.401 16.607C40.2811 16.7312 40.1763 16.87 40.0892 17.0203L40.0941 16.5971Z" fill="#A46AFF"/>
<path d="M42.9292 18.6858V16.3668H42.4023C42.3886 16.3656 42.3757 16.3596 42.3659 16.3496C42.3562 16.3396 42.3502 16.3264 42.3491 16.3123V16.1341H43.1177C43.1264 16.1316 43.1356 16.1316 43.1443 16.1341L43.1636 16.1539C43.1658 16.1629 43.1658 16.1722 43.1636 16.1812V18.7328H42.9751C42.9682 18.7326 42.9615 18.731 42.9552 18.728C42.949 18.725 42.9434 18.7207 42.9388 18.7155C42.9322 18.7071 42.9288 18.6966 42.9292 18.6858ZM42.8663 14.9957H43.1999C43.2069 14.9953 43.214 14.9965 43.2206 14.9991C43.2272 15.0017 43.2332 15.0057 43.2382 15.0108C43.2432 15.0159 43.2471 15.0221 43.2497 15.0289C43.2522 15.0356 43.2534 15.0429 43.253 15.0501V15.3917H42.9195C42.9124 15.392 42.9054 15.3908 42.8988 15.3882C42.8922 15.3856 42.8862 15.3816 42.8811 15.3765C42.8761 15.3714 42.8722 15.3652 42.8697 15.3584C42.8671 15.3517 42.866 15.3444 42.8663 15.3372V14.9957Z" fill="#A46AFF"/>
<path d="M45.5296 16.087C45.6403 16.0853 45.7507 16.0978 45.8583 16.1242C45.9371 16.1439 46.0133 16.173 46.0855 16.2108C46.1287 16.2342 46.1692 16.2624 46.2064 16.2949L46.2281 16.3246C46.2296 16.3361 46.2296 16.3478 46.2281 16.3593V16.5251H46.1701C46.0952 16.4693 46.0141 16.4228 45.9284 16.3865C45.8011 16.3373 45.6656 16.3146 45.5296 16.3197C45.3678 16.3131 45.207 16.3497 45.0632 16.4261C44.9393 16.494 44.8407 16.6019 44.7828 16.733C44.7181 16.8894 44.6868 17.0582 44.691 17.228V17.723C44.6891 17.8422 44.7062 17.9609 44.7417 18.0744C44.7738 18.1675 44.8258 18.2521 44.894 18.3219C44.9693 18.3982 45.0613 18.455 45.1623 18.4877C45.2805 18.5285 45.4049 18.5478 45.5296 18.5446C45.6261 18.5464 45.7224 18.5381 45.8172 18.5199C45.888 18.507 45.957 18.4854 46.0227 18.4555C46.0766 18.4335 46.1271 18.4035 46.1725 18.3665H46.2305V18.5397C46.2319 18.5462 46.2319 18.553 46.2305 18.5595C46.2289 18.5673 46.2246 18.5743 46.2185 18.5793C46.1817 18.6142 46.1402 18.6434 46.0952 18.6659C46.0253 18.7035 45.9504 18.7302 45.8728 18.7451C45.7592 18.7691 45.6432 18.7799 45.5272 18.7773C45.3716 18.7804 45.2166 18.7578 45.068 18.7105C44.9415 18.6704 44.8257 18.6009 44.7296 18.5075C44.6359 18.4142 44.5648 18.2998 44.5218 18.1734C44.4732 18.0268 44.4495 17.8728 44.4517 17.718V17.1933C44.4428 16.9725 44.4929 16.7535 44.5967 16.5597C44.6874 16.3996 44.823 16.2712 44.9858 16.191C45.1574 16.1156 45.3431 16.0801 45.5296 16.087Z" fill="#A46AFF"/>
<path d="M47.5766 18.0868C47.5721 18.1511 47.5816 18.2156 47.6046 18.2755C47.6276 18.3355 47.6635 18.3894 47.7096 18.4333C47.8194 18.5193 47.9559 18.5615 48.0938 18.5521C48.2178 18.5543 48.3411 18.535 48.4588 18.4952C48.5799 18.4521 48.691 18.3838 48.7851 18.2947C48.9122 18.1741 49.0242 18.0377 49.1186 17.8888V18.3294H48.9736C48.9153 18.4239 48.8417 18.5075 48.7561 18.5769C48.6705 18.648 48.5719 18.701 48.466 18.7328C48.3452 18.7691 48.2197 18.7866 48.0938 18.7848C47.9543 18.7884 47.8156 18.7605 47.6878 18.7031C47.5777 18.6505 47.4865 18.5639 47.4268 18.4556C47.362 18.3407 47.3302 18.2095 47.3349 18.0769V17.9383C47.3332 17.8369 47.3504 17.7361 47.3857 17.6413C47.4173 17.5572 47.4688 17.4824 47.5355 17.4235C47.6061 17.3616 47.6884 17.3153 47.7772 17.2874C47.8804 17.2543 47.9881 17.2384 48.0963 17.2404H49.0775C49.0886 17.2394 49.0997 17.2416 49.1096 17.2469C49.1194 17.2522 49.1276 17.2602 49.1331 17.2701C49.1467 17.2951 49.1541 17.3231 49.1549 17.3518C49.1575 17.3921 49.1575 17.4327 49.1549 17.473H48.0914C48.0097 17.4703 47.9281 17.4811 47.8497 17.5052C47.7871 17.5251 47.73 17.5599 47.683 17.6067C47.6436 17.6471 47.6138 17.6962 47.596 17.7502C47.5758 17.8125 47.566 17.8777 47.567 17.9433L47.5766 18.0868ZM49.2685 16.9533V18.2155C49.2671 18.2663 49.2719 18.317 49.283 18.3665C49.2903 18.4016 49.3081 18.4336 49.3337 18.4581C49.3537 18.4786 49.3788 18.4932 49.4062 18.5001C49.4399 18.5056 49.4741 18.5056 49.5077 18.5001H49.6092V18.6734C49.61 18.6811 49.6091 18.6888 49.6066 18.6961C49.6041 18.7034 49.6001 18.71 49.5947 18.7155C49.584 18.7246 49.5701 18.7291 49.5561 18.7278H49.4981C49.4368 18.7288 49.3757 18.7205 49.3168 18.7031C49.2596 18.6882 49.2068 18.6596 49.1626 18.6195C49.1185 18.5795 49.0843 18.5292 49.063 18.4729C49.0368 18.401 49.0245 18.3245 49.0268 18.2477V16.978C49.0331 16.8448 49.0125 16.7117 48.9663 16.587C48.9471 16.541 48.9187 16.4996 48.8829 16.4655C48.8471 16.4314 48.8047 16.4053 48.7585 16.389C48.6249 16.3459 48.4851 16.3267 48.3452 16.3321C48.2531 16.3326 48.1611 16.3384 48.0697 16.3494C47.9839 16.3611 47.8991 16.3793 47.8159 16.4039C47.7335 16.4282 47.6528 16.4579 47.5742 16.493H47.5162V16.3024C47.5136 16.2944 47.5136 16.2857 47.5162 16.2776V16.2628C47.5596 16.2338 47.6068 16.2113 47.6564 16.196C47.753 16.1642 47.8515 16.1386 47.9512 16.1192C48.0805 16.0956 48.2115 16.084 48.3428 16.0846C48.4835 16.0829 48.6239 16.0987 48.7609 16.1316C48.8675 16.1568 48.9663 16.2087 49.0485 16.2826C49.1259 16.3559 49.1826 16.449 49.2129 16.5524C49.2525 16.682 49.2713 16.8175 49.2685 16.9533Z" fill="#A46AFF"/>
<path d="M52.5844 15.0254L52.0213 16.4584L51.4557 17.8938C51.2672 18.374 51.0762 18.8516 50.8877 19.3318C50.8836 19.3432 50.8779 19.3541 50.8708 19.364L50.8442 19.3813H50.8152H50.6025C50.6364 19.2922 50.6726 19.2006 50.7113 19.1115C50.75 19.0224 50.7814 18.9284 50.8152 18.8393L51.3155 17.5795C51.4823 17.1588 51.6466 16.738 51.8134 16.3148C51.9802 15.8916 52.1445 15.4734 52.3089 15.0551C52.3143 15.0439 52.3227 15.0344 52.333 15.0279C52.3442 15.0253 52.3557 15.0253 52.3669 15.0279H52.5844V15.0254Z" fill="#A46AFF"/>
<path d="M54.2352 16.0871C54.3444 16.0857 54.4531 16.1033 54.5566 16.1391C54.6523 16.1745 54.7414 16.2264 54.8201 16.2926C54.9049 16.3643 54.9797 16.4476 55.0424 16.5401H55.173V17.035C55.0675 16.8239 54.9201 16.6376 54.7403 16.4881C54.6027 16.3765 54.4325 16.3155 54.2569 16.3148C54.1304 16.3114 54.0055 16.3448 53.8968 16.4114C53.79 16.4757 53.7055 16.5726 53.6551 16.6885C53.5932 16.83 53.5634 16.984 53.5681 17.139V17.7825C53.5665 17.8988 53.5853 18.0145 53.6237 18.124C53.6533 18.2166 53.7029 18.3012 53.7687 18.3715C53.8279 18.4325 53.8998 18.479 53.979 18.5076C54.0664 18.5404 54.159 18.5564 54.2521 18.5546C54.3641 18.5544 54.475 18.5318 54.5784 18.4878C54.6934 18.4362 54.797 18.3613 54.8829 18.2676C54.9949 18.148 55.0901 18.0131 55.1657 17.8666V18.3146H55.0352C54.9738 18.4074 54.8997 18.4908 54.8153 18.5621C54.7343 18.6313 54.6417 18.6849 54.5421 18.7205C54.4349 18.7581 54.322 18.7765 54.2086 18.7749C54.0887 18.7762 53.9696 18.7535 53.8582 18.7081C53.7516 18.665 53.6552 18.5992 53.5754 18.5151C53.4949 18.4271 53.4325 18.3236 53.3917 18.2106C53.3522 18.0844 53.3342 17.9521 53.3385 17.8196V17.1068C53.3362 16.9621 53.3583 16.8181 53.4038 16.6811C53.4443 16.5615 53.5076 16.4514 53.5899 16.3569C53.6703 16.2688 53.7685 16.1996 53.8775 16.154C53.9915 16.1087 54.1129 16.086 54.2352 16.0871ZM55.289 15.0279C55.2984 15.025 55.3085 15.025 55.318 15.0279L55.3349 15.0452C55.3377 15.0549 55.3377 15.0652 55.3349 15.0749V18.7353H55.1464C55.1377 18.7379 55.1285 18.7379 55.1198 18.7353C55.1123 18.7309 55.1057 18.725 55.1005 18.718C55.0969 18.7084 55.0969 18.6979 55.1005 18.6883V15.0254H55.289V15.0279Z" fill="#A46AFF"/>
<path d="M57.0752 18.6858V16.3668H56.5483C56.5346 16.3656 56.5217 16.3596 56.5119 16.3496C56.5022 16.3396 56.4962 16.3264 56.4951 16.3123V16.1341H57.2637C57.2724 16.1316 57.2816 16.1316 57.2903 16.1341L57.3096 16.1539C57.3118 16.1629 57.3118 16.1722 57.3096 16.1812V18.7328H57.1211C57.1074 18.7317 57.0945 18.7256 57.0847 18.7156C57.075 18.7056 57.069 18.6924 57.0679 18.6784L57.0752 18.6858ZM57.0123 14.9957H57.3459C57.3529 14.9953 57.36 14.9965 57.3666 14.9991C57.3732 15.0017 57.3792 15.0057 57.3842 15.0108C57.3892 15.0159 57.3931 15.0221 57.3957 15.0289C57.3982 15.0356 57.3994 15.0429 57.399 15.0501V15.3917H57.0655C57.0584 15.392 57.0514 15.3908 57.0448 15.3882C57.0381 15.3856 57.0321 15.3816 57.0271 15.3765C57.0221 15.3714 57.0182 15.3652 57.0157 15.3584C57.0131 15.3517 57.012 15.3444 57.0123 15.3372V14.9957Z" fill="#A46AFF"/>
<path d="M58.8297 18.2847C58.8293 18.2249 58.8391 18.1654 58.8587 18.109C58.8775 18.055 58.9053 18.0048 58.9409 17.9605C58.9757 17.9158 59.0183 17.8781 59.0665 17.8492V17.7551L59.2841 17.8343C59.2164 17.8814 59.1615 17.9452 59.1245 18.0199C59.0862 18.0963 59.0678 18.1816 59.0714 18.2674C59.0682 18.3006 59.0724 18.3341 59.0837 18.3654C59.095 18.3967 59.1131 18.425 59.1366 18.4481C59.1845 18.489 59.246 18.5094 59.3082 18.505H60.1058C60.2506 18.5005 60.3945 18.5301 60.5263 18.5916C60.634 18.6451 60.7227 18.7316 60.7801 18.8391C60.8388 18.9499 60.868 19.0745 60.8647 19.2005V19.3044C60.8651 19.3976 60.8453 19.4898 60.8067 19.5742C60.767 19.6589 60.7101 19.734 60.6399 19.7945C60.5622 19.8593 60.4738 19.9096 60.3789 19.943C60.2689 19.9798 60.1539 19.9982 60.0381 19.9974H59.1971C59.0527 20.0027 58.9092 19.9722 58.7789 19.9083C58.677 19.851 58.5932 19.7652 58.5372 19.6608C58.4793 19.5631 58.4492 19.4509 58.4502 19.3366V19.2524C58.4493 19.1554 58.4682 19.0593 58.5058 18.9703C58.5444 18.8863 58.6015 18.8126 58.6726 18.755C58.7501 18.6938 58.8402 18.6515 58.936 18.6312V18.5075L59.2116 18.7055C59.1023 18.7092 58.9962 18.7434 58.9046 18.8045C58.8327 18.8547 58.7764 18.9252 58.7427 19.0074C58.7096 19.0855 58.6932 19.1699 58.6943 19.2549V19.3391C58.6946 19.4084 58.712 19.4766 58.7451 19.5371C58.7832 19.6043 58.8406 19.6578 58.9094 19.6905C59.0042 19.7342 59.1077 19.7546 59.2116 19.7499H60.1058C60.189 19.7524 60.2716 19.7355 60.3475 19.7004C60.4071 19.6716 60.4618 19.6332 60.5094 19.5866C60.5486 19.5484 60.5791 19.502 60.5989 19.4505C60.6174 19.4007 60.6265 19.3478 60.6254 19.2945V19.2005C60.6282 19.082 60.5867 18.9669 60.5094 18.8787C60.455 18.8297 60.3913 18.7927 60.3222 18.7701C60.2532 18.7475 60.1803 18.7398 60.1082 18.7476H59.3082C59.2249 18.7487 59.1424 18.7309 59.0665 18.6956C58.9955 18.6634 58.9357 18.6099 58.8949 18.5421C58.848 18.4652 58.8252 18.3754 58.8297 18.2847ZM59.8883 16.3048H60.2508V16.3865C60.3533 16.4374 60.4334 16.5257 60.4756 16.634C60.5187 16.7337 60.5409 16.8416 60.5408 16.9508V17.077C60.5431 17.2284 60.5001 17.377 60.4176 17.5027C60.3304 17.6285 60.2107 17.7271 60.072 17.7873C59.736 17.92 59.3638 17.92 59.0279 17.7873C58.8889 17.7287 58.769 17.6308 58.6823 17.5051C58.5997 17.3794 58.5567 17.2309 58.559 17.0795V16.9508C58.5546 16.7928 58.5976 16.6374 58.6823 16.5053C58.7676 16.3753 58.8875 16.2731 59.0279 16.2107C59.1925 16.1379 59.3706 16.1025 59.5499 16.1068H60.8599V16.285C60.8601 16.2919 60.8589 16.2987 60.8564 16.3051C60.854 16.3115 60.8502 16.3173 60.8454 16.3221C60.8408 16.328 60.8348 16.3326 60.8281 16.3356C60.8214 16.3386 60.814 16.3399 60.8067 16.3394H59.5499C59.3554 16.3291 59.1631 16.3858 59.0037 16.5003C58.9365 16.5527 58.8829 16.6212 58.8475 16.6997C58.8121 16.7782 58.796 16.8644 58.8007 16.9508V17.077C58.8001 17.148 58.8124 17.2185 58.8369 17.2849C58.8615 17.348 58.8985 17.4053 58.9457 17.4532C59.0154 17.5191 59.0977 17.5697 59.1874 17.6017C59.3019 17.6405 59.4221 17.6589 59.5427 17.6561C59.7365 17.6667 59.9284 17.612 60.0889 17.5002C60.1551 17.452 60.2085 17.3876 60.244 17.3127C60.2794 17.2379 60.2959 17.1551 60.2919 17.072V16.9433C60.2944 16.8591 60.2813 16.7751 60.2532 16.6958C60.2253 16.6181 60.1816 16.5472 60.1251 16.4879C60.0553 16.4174 59.9755 16.3581 59.8883 16.3122V16.3048Z" fill="#A46AFF"/>
<path d="M62.4721 18.6858V16.3667H61.9428C61.9359 16.3665 61.9292 16.3649 61.923 16.3619C61.9167 16.3589 61.9111 16.3547 61.9066 16.3494C61.9014 16.3447 61.8973 16.339 61.8944 16.3326C61.8915 16.3262 61.8899 16.3193 61.8896 16.3123V16.1341H62.6606C62.6694 16.1319 62.6785 16.1319 62.6872 16.1341L62.7066 16.1539C62.7087 16.1628 62.7087 16.1722 62.7066 16.1811V18.7328H62.5229C62.5091 18.7316 62.4962 18.7255 62.4865 18.7156C62.4768 18.7056 62.4708 18.6924 62.4697 18.6783L62.4721 18.6858ZM62.4093 14.9956H62.7428C62.7571 14.9953 62.7709 15.0006 62.7815 15.0105C62.7865 15.0157 62.7903 15.0219 62.7928 15.0287C62.7953 15.0355 62.7964 15.0428 62.796 15.0501V15.3916H62.4625C62.4554 15.392 62.4483 15.3908 62.4417 15.3882C62.4351 15.3856 62.4291 15.3816 62.4241 15.3764C62.4191 15.3713 62.4152 15.3652 62.4126 15.3584C62.4101 15.3516 62.4089 15.3444 62.4093 15.3371V14.9956Z" fill="#A46AFF"/>
<path d="M63.9102 16.1342H65.6962C65.7034 16.1337 65.7105 16.1348 65.7171 16.1374C65.7238 16.1399 65.7299 16.1439 65.7349 16.149C65.7445 16.1598 65.7497 16.174 65.7494 16.1886V16.3668H63.973C63.9667 16.3689 63.96 16.3689 63.9537 16.3668L63.9367 16.3544L63.9247 16.3371C63.9233 16.3306 63.9233 16.3238 63.9247 16.3173V16.1391L63.9102 16.1342ZM65.7494 18.5076V18.6858C65.7505 18.7009 65.7462 18.7159 65.7373 18.7279C65.7373 18.7279 65.7156 18.7403 65.6962 18.7403H65.3627C65.2344 18.7427 65.1064 18.7252 64.9833 18.6883C64.8807 18.6576 64.7875 18.6005 64.7126 18.5225C64.6356 18.4411 64.5792 18.3417 64.5482 18.2329C64.5074 18.0942 64.4886 17.9496 64.4926 17.8048V15.2729H64.6811C64.6899 15.2707 64.699 15.2707 64.7077 15.2729C64.7154 15.2782 64.7219 15.2849 64.7271 15.2927C64.7296 15.3016 64.7296 15.311 64.7271 15.3199V17.7676C64.7239 17.8862 64.7377 18.0046 64.7682 18.1191C64.7904 18.2067 64.8346 18.2869 64.8963 18.3517C64.95 18.4075 65.0177 18.4469 65.092 18.4656C65.1841 18.4913 65.2794 18.503 65.3748 18.5002H65.7422L65.7494 18.5076Z" fill="#A46AFF"/>
<path d="M67.0906 18.0868C67.0863 18.1512 67.0963 18.2158 67.1197 18.2758C67.1431 18.3358 67.1795 18.3896 67.2259 18.4333C67.3353 18.5201 67.4722 18.5624 67.6102 18.5521C67.7341 18.5541 67.8575 18.5348 67.9752 18.4951C68.0963 18.4521 68.2074 18.3838 68.3015 18.2947C68.4286 18.174 68.5406 18.0377 68.635 17.8888V18.3293H68.49C68.4316 18.4238 68.3581 18.5075 68.2725 18.5768C68.1862 18.647 68.0878 18.6999 67.9824 18.7327C67.8616 18.7689 67.7361 18.7864 67.6102 18.7847C67.4706 18.7889 67.3319 18.761 67.2042 18.7031C67.0939 18.6498 67.0021 18.5635 66.9408 18.4556C66.877 18.3403 66.8453 18.2093 66.8489 18.0769V17.9383C66.8472 17.8369 66.8644 17.7361 66.8997 17.6413C66.9322 17.5576 66.9835 17.483 67.0495 17.4235C67.1206 17.3624 67.2027 17.3161 67.2912 17.2874C67.3943 17.2539 67.5021 17.238 67.6102 17.2404H68.5915C68.6025 17.2396 68.6135 17.242 68.6233 17.2472C68.6331 17.2525 68.6414 17.2604 68.6471 17.2701C68.6606 17.2951 68.6681 17.3231 68.6688 17.3517C68.6688 17.3864 68.6688 17.426 68.6688 17.473H67.6054C67.5237 17.4701 67.442 17.4809 67.3637 17.5052C67.3006 17.5238 67.2431 17.5588 67.1969 17.6067C67.1568 17.6469 67.1262 17.696 67.1075 17.7502C67.0874 17.8124 67.0776 17.8777 67.0785 17.9432L67.0906 18.0868ZM68.7824 16.9533V18.2155C68.781 18.2662 68.7859 18.317 68.7969 18.3665C68.8044 18.401 68.8212 18.4327 68.8453 18.458C68.8652 18.4786 68.8903 18.4931 68.9178 18.5001C68.9514 18.5056 68.9857 18.5056 69.0193 18.5001H69.1208V18.6734C69.1221 18.6808 69.1216 18.6884 69.1194 18.6956C69.1171 18.7028 69.1133 18.7094 69.108 18.7147C69.1028 18.7201 69.0964 18.7241 69.0894 18.7263C69.0824 18.7286 69.0749 18.7291 69.0676 18.7278H69.0096C68.9483 18.7287 68.8872 18.7204 68.8283 18.7031C68.7728 18.6884 68.7214 18.6604 68.6785 18.6214C68.6331 18.5814 68.5981 18.5303 68.577 18.4729C68.5508 18.4009 68.5385 18.3244 68.5407 18.2477V16.978C68.5471 16.8448 68.5265 16.7117 68.4803 16.587C68.4607 16.5412 68.4321 16.5 68.3964 16.466C68.3606 16.4319 68.3185 16.4057 68.2725 16.389C68.1388 16.3463 67.9991 16.327 67.8592 16.3321C67.7671 16.3326 67.6751 16.3384 67.5836 16.3494C67.4979 16.3611 67.413 16.3793 67.3299 16.4038C67.2427 16.428 67.1572 16.4577 67.0737 16.4929H67.0157V16.3024C67.0143 16.2942 67.0143 16.2858 67.0157 16.2776V16.2628C67.06 16.234 67.108 16.2115 67.1583 16.1959C67.2548 16.1638 67.3533 16.1382 67.4531 16.1192C67.5824 16.0956 67.7134 16.084 67.8447 16.0846C67.9854 16.0832 68.1257 16.0989 68.2628 16.1316C68.3692 16.1574 68.4679 16.2092 68.5504 16.2826C68.6269 16.3565 68.6836 16.4494 68.7148 16.5523C68.7593 16.6812 68.783 16.8166 68.7848 16.9533H68.7824Z" fill="#A46AFF"/>
<path d="M70.2569 15.6094V15.0253H70.4454C70.4541 15.0228 70.4633 15.0228 70.472 15.0253C70.4796 15.0306 70.4862 15.0373 70.4913 15.0451C70.4938 15.054 70.4938 15.0635 70.4913 15.0724V18.067C70.4904 18.136 70.4969 18.2049 70.5107 18.2725C70.5207 18.3219 70.5441 18.3673 70.5783 18.4036C70.6134 18.4383 70.6567 18.4631 70.704 18.4754C70.7672 18.4917 70.8322 18.4992 70.8974 18.4977H71.0714V18.6759C71.0727 18.6833 71.0722 18.691 71.0699 18.6982C71.0677 18.7054 71.0638 18.7119 71.0586 18.7173C71.0534 18.7226 71.047 18.7266 71.04 18.7289C71.0329 18.7311 71.0255 18.7316 71.0182 18.7303H70.8974C70.7969 18.733 70.6966 18.7197 70.6001 18.6907C70.524 18.6691 70.4548 18.6272 70.3995 18.5695C70.3453 18.51 70.3063 18.4377 70.2859 18.3591C70.2636 18.2635 70.2539 18.1653 70.2569 18.067V15.6144V15.6094Z" fill="#A46AFF"/>
<path d="M9.37992 18.1314L8.51709 15.7852C9.00768 16.0302 9.53438 16.1908 10.076 16.2603L9.37992 18.1314Z" fill="white"/>
<path d="M16.1185 18.1314L15.4297 16.2603C15.9688 16.19 16.493 16.0295 16.9813 15.7852L16.1185 18.1314Z" fill="white"/>
</g>
<defs>
<clipPath id="clip0_323_4935">
<rect width="77" height="20" fill="white"/>
</clipPath>
</defs>
</svg>
