<svg width="93" height="19" viewBox="0 0 93 19" fill="none" xmlns="http://www.w3.org/2000/svg">
<g clip-path="url(#clip0_323_4964)">
<path d="M0.903804 7.68709H0V6.52068H0.903804V5.62408C0.903804 4.1513 1.72087 3.35589 3.14234 3.35589C3.44043 3.34799 3.73766 3.39173 4.02097 3.48518V4.68813C3.79606 4.60983 3.55945 4.57086 3.32143 4.5729C2.69464 4.5729 2.44 4.98326 2.44 5.55945V6.52068H3.95942V7.68709H2.44V13.2241H0.895418L0.903804 7.68709Z" fill="#E3142B"/>
<path d="M5.19043 10.8154V6.52075H6.73503V10.6355C6.73503 11.6474 7.15755 12.1083 8.05017 12.1083C8.26051 12.1184 8.47059 12.0836 8.66654 12.0061C8.86248 11.9286 9.03983 11.8103 9.18688 11.6589C9.33392 11.5074 9.44729 11.3264 9.51953 11.1277C9.59177 10.929 9.62123 10.7172 9.60595 10.5063V6.52075H11.1505V13.2241H9.60035V12.173C9.26737 12.8278 8.56782 13.3534 7.48213 13.3534C6.17259 13.3534 5.19043 12.5974 5.19043 10.8154Z" fill="#E3142B"/>
<path d="M12.9751 6.52066H14.5197V7.58589C14.8387 6.93101 15.5774 6.38013 16.6743 6.38013C18.0146 6.38013 18.9576 7.16148 18.9576 9.00808V13.2241H17.4158V9.14861C17.4158 8.13678 17.0073 7.67583 16.0867 7.67583C15.2192 7.67583 14.5197 8.21267 14.5197 9.27791V13.2128H12.9751V6.52066Z" fill="#E3142B"/>
<path d="M20.2979 9.98073V9.87392C20.2979 7.73221 21.5626 6.37466 23.2975 6.37466C24.3804 6.37466 25.0575 6.87496 25.4269 7.54108V3.40942H26.9715V13.213H25.4269V12.0887C25.2005 12.4707 24.8794 12.7873 24.495 13.0075C24.1105 13.2277 23.6757 13.344 23.2331 13.3451C21.5626 13.3535 20.2979 12.1618 20.2979 9.98073ZM25.4773 9.90483V9.80366C25.4773 8.32806 24.8029 7.5973 23.678 7.5973C22.5532 7.5973 21.8816 8.39271 21.8816 9.84582V9.94981C21.8816 11.4226 22.6203 12.1281 23.6165 12.1281C24.6882 12.1224 25.4773 11.4057 25.4773 9.90483Z" fill="#E3142B"/>
<path d="M28.3232 11.3662C28.3232 9.8035 29.8287 9.23855 31.7426 9.23855H32.5821V8.89285C32.5821 7.99625 32.2743 7.54654 31.3677 7.54654C30.5646 7.54654 30.17 7.93161 30.0917 8.59773H28.6003C28.729 7.03501 29.9658 6.38013 31.4572 6.38013C32.9486 6.38013 34.1239 6.99567 34.1239 8.82821V13.2241H32.6072V12.4033C32.1735 12.9655 31.5859 13.3534 30.5646 13.3534C29.3306 13.3534 28.3232 12.7631 28.3232 11.3662ZM32.5737 10.88V10.2139H31.7818C30.6066 10.2139 29.8538 10.4809 29.8538 11.3016C29.8538 11.8637 30.1617 12.2375 30.9256 12.2375C31.8713 12.2375 32.5737 11.7372 32.5737 10.88Z" fill="#E3142B"/>
<path d="M35.4443 9.95527V9.85409C35.4443 7.72642 36.9498 6.38013 38.8021 6.38013C40.2824 6.38013 41.6731 7.04625 41.8522 8.89285H40.3803C40.2516 7.99625 39.664 7.62243 38.8469 7.62243C37.7892 7.62243 37.0365 8.44315 37.0365 9.8288V9.92998C37.0365 11.3915 37.75 12.1616 38.8861 12.1616C39.289 12.1854 39.6849 12.0475 39.9866 11.7782C40.2884 11.5088 40.4712 11.1302 40.495 10.7254H41.9109C41.7962 12.2628 40.6349 13.3534 38.8329 13.3534C36.8966 13.3534 35.4443 12.097 35.4443 9.95527Z" fill="#E3142B"/>
<path d="M43.0976 4.53351C43.0893 4.34906 43.136 4.16631 43.232 4.0088C43.3279 3.85129 43.4686 3.72624 43.6359 3.64975C43.8032 3.57325 43.9895 3.54881 44.1707 3.57958C44.352 3.61036 44.5199 3.69493 44.6529 3.82241C44.7859 3.94989 44.8778 4.11446 44.9169 4.29489C44.9559 4.47532 44.9403 4.66335 44.872 4.83479C44.8038 5.00622 44.686 5.1532 44.5338 5.2568C44.3816 5.36039 44.2021 5.41587 44.0182 5.41606C43.8999 5.41943 43.7822 5.39921 43.6717 5.35657C43.5612 5.31393 43.4603 5.24971 43.3747 5.16764C43.2891 5.08558 43.2205 4.98727 43.173 4.87843C43.1254 4.76958 43.0998 4.65236 43.0976 4.53351ZM43.2655 6.51783H44.8073V13.2212H43.2655V6.51783Z" fill="#E3142B"/>
<path d="M46.2368 9.94417V9.84018C46.2368 7.76592 47.7031 6.38027 49.6702 6.38027C51.6373 6.38027 53.0895 7.75186 53.0895 9.80364V9.90482C53.0895 11.9931 51.6205 13.3535 49.6562 13.3535C47.6919 13.3535 46.2368 11.9819 46.2368 9.94417ZM51.5058 9.91887V9.82894C51.5058 8.44329 50.8174 7.59728 49.6702 7.59728C48.5229 7.59728 47.8178 8.44046 47.8178 9.81487V9.91887C47.8178 11.2905 48.4949 12.1477 49.6702 12.1477C50.8454 12.1477 51.5058 11.2792 51.5058 9.91887ZM49.7709 3.53589H51.4806L50.1543 5.52302H49.0182L49.7709 3.53589Z" fill="#E3142B"/>
<path d="M64.4167 12.3133C64.4128 12.1104 64.4693 11.9109 64.5789 11.7404C64.6884 11.5698 64.8462 11.436 65.0319 11.356C65.2176 11.276 65.4229 11.2535 65.6214 11.2913C65.82 11.3291 66.0028 11.4255 66.1464 11.5682C66.2901 11.711 66.3882 11.8935 66.428 12.0925C66.4679 12.2915 66.4477 12.4979 66.3702 12.6853C66.2926 12.8727 66.1612 13.0327 65.9926 13.1447C65.8241 13.2566 65.6261 13.3156 65.424 13.3139C65.2922 13.3158 65.1613 13.2913 65.0389 13.2418C64.9166 13.1923 64.8053 13.1189 64.7116 13.0257C64.6178 12.9326 64.5434 12.8216 64.4928 12.6993C64.4422 12.577 64.4163 12.4458 64.4167 12.3133Z" fill="#E3142B"/>
<path d="M67.4277 9.95527V9.85409C67.4277 7.72642 68.9332 6.38013 70.7855 6.38013C72.2658 6.38013 73.6565 7.04625 73.8356 8.89285H72.3413C72.2154 7.99625 71.6278 7.62243 70.8107 7.62243C69.753 7.62243 69.0003 8.44315 69.0003 9.8288V9.92998C69.0003 11.3915 69.7139 12.1616 70.8499 12.1616C71.0494 12.1738 71.2493 12.1462 71.4381 12.0805C71.6269 12.0149 71.8009 11.9123 71.9502 11.7789C72.0995 11.6454 72.221 11.4836 72.3078 11.3028C72.3946 11.122 72.445 10.9258 72.4561 10.7254H73.8747C73.7572 12.2628 72.5988 13.3534 70.7967 13.3534C68.8828 13.3534 67.4277 12.097 67.4277 9.95527Z" fill="#E3142B"/>
<path d="M74.728 11.3662C74.728 9.8035 76.2334 9.23855 78.1474 9.23855H78.9868V8.89285C78.9868 7.99625 78.6791 7.54654 77.7752 7.54654C76.9722 7.54654 76.5748 7.93161 76.4993 8.59773H74.9939C75.1226 7.03501 76.3594 6.38013 77.8536 6.38013C79.3478 6.38013 80.5202 6.99567 80.5202 8.82821V13.2241H78.9952V12.4033C78.5615 12.9655 77.9739 13.3534 76.9554 13.3534C75.7354 13.3534 74.728 12.7631 74.728 11.3662ZM78.9757 10.88V10.2139H78.1838C77.0113 10.2139 76.2586 10.4809 76.2586 11.3016C76.2586 11.8637 76.5636 12.2375 77.3303 12.2375C78.2733 12.2375 78.9757 11.7372 78.9757 10.88Z" fill="#E3142B"/>
<path d="M91.4553 1.55148V17.4626H59.8024V1.55148H91.4553ZM92.9971 0H58.2578V18.9972H92.9859V0H92.9971Z" fill="#E3142B"/>
<path d="M85.4337 6.51514H84.1214V5.03955H82.5768V6.51514H81.5723V7.67875H82.5768V13.182H84.1214V7.67875H85.4337V6.51514Z" fill="#E3142B"/>
</g>
<defs>
<clipPath id="clip0_323_4964">
<rect width="93" height="19" fill="white"/>
</clipPath>
</defs>
</svg>
